<?xml version="1.0" encoding="UTF-8"?>
<!DOCTYPE svg PUBLIC "-//W3C//DTD SVG 1.1//EN" "http://www.w3.org/Graphics/SVG/1.1/DTD/svg11.dtd">
<svg version="1.1" xmlns="http://www.w3.org/2000/svg" xmlns:xlink="http://www.w3.org/1999/xlink" x="0" y="0" width="307.5" height="645" viewBox="0, 0, 307.5, 645">
  <g id="Layer_1">
    <path d="M301.32,224.332 C293.405,218.795 276.335,225.37 263.503,246.967 C260.63,242.027 257.91,240.015 254.613,240.015 C252.723,240.015 250.923,240.805 249.54,242.238 C245.073,246.872 244.558,261.568 244.95,273.41 L240.17,291.293 C233.208,292.137 228.168,296.443 226.463,303.165 C226.185,304.27 225.433,306.57 224.563,309.232 C216.083,300.005 209.73,297.435 206.135,296.815 C199.218,291.32 191.79,286.62 184.435,283.085 C222.21,275.785 246.543,255.982 248.428,238.875 C248.645,236.893 248.828,234.68 248.973,232.283 C249.1,231.715 249.133,231.122 249.07,230.535 C249.273,226.545 249.375,222.027 249.375,217.072 C256.212,210.59 258.698,201.975 259.592,197.042 C260.875,192.055 262.062,186.995 263.133,181.973 C270.4,175.285 274.228,167.675 274.228,159.872 C274.228,155.885 271.788,152.455 268.323,151 C276.6,82.732 260.587,41.59 259.883,39.822 C259.715,39.407 259.497,39.012 259.233,38.65 C233.478,3.545 174.42,0.817 156.933,0.817 C155.38,0.817 154.355,0.84 153.953,0.852 C153.55,0.84 152.523,0.817 150.973,0.817 C133.485,0.817 74.433,3.545 48.68,38.65 C48.415,39.012 48.198,39.407 48.03,39.822 C47.325,41.59 31.315,82.737 39.588,151.003 C36.125,152.46 33.69,155.887 33.69,159.872 C33.69,167.673 37.515,175.277 44.778,181.962 C45.838,186.95 47.033,192.037 48.335,197.117 C48.708,199.143 49.22,201.132 49.925,203.207 C49.975,203.385 50.033,203.555 50.098,203.723 C51.858,208.652 54.518,212.977 57.863,216.375 C57.845,225.442 58.165,233.005 58.81,238.875 C60.69,255.947 85.05,275.785 122.84,283.087 C115.488,286.625 108.06,291.325 101.15,296.815 C97.555,297.435 91.203,300.005 82.723,309.235 C81.853,306.57 81.1,304.27 80.823,303.165 C79.118,296.443 74.08,292.137 67.115,291.293 L62.338,273.41 C62.728,261.57 62.213,246.872 57.745,242.238 C56.363,240.805 54.563,240.018 52.673,240.018 C49.375,240.018 46.655,242.027 43.785,246.967 C30.948,225.365 13.873,218.795 5.968,224.332 C0.198,228.37 -0.925,236.15 2.638,247.455 C4.985,254.9 7.328,260.137 9.643,263.125 L9.473,263.212 C15.18,274.277 28.378,280.948 34.073,283.405 L38.42,299.663 C34.138,303.68 32.478,309.193 33.955,315.025 C34.233,316.128 34.665,318.505 35.165,321.26 C39.11,342.94 47.313,388.052 71.96,388.052 C73.698,388.052 75.48,387.812 77.133,387.37 C79.505,386.8 81.715,385.827 83.71,384.475 C83.938,384.345 84.163,384.212 84.388,384.073 C78.908,428.728 74.788,479.48 72.118,535.237 C72.065,536.333 72.353,537.415 72.94,538.34 C73.62,539.412 80.04,548.552 103.878,554.393 C105.745,568.09 107.99,582.02 110.558,595.857 C110.78,597.06 111.413,598.15 112.348,598.94 C112.68,599.222 115.235,601.33 119.553,603.31 L119.73,605.33 C118.658,605.6 117.693,606.2 116.975,607.05 L107.03,618.81 C104.743,621.247 103.388,623.927 102.878,626.688 C102.125,630.768 103.278,635.02 106.445,638.94 C108.238,641.162 111.683,643.81 117.903,643.81 C129.46,643.81 148.518,633.315 153.633,624.79 C158.745,633.315 177.803,643.81 189.36,643.81 C195.578,643.81 199.023,641.162 200.818,638.94 C203.983,635.02 205.138,630.77 204.385,626.69 C203.875,623.93 202.52,621.25 200.235,618.81 L190.288,607.05 C189.57,606.2 188.605,605.6 187.533,605.33 L187.71,603.31 C192.028,601.33 194.585,599.222 194.915,598.94 C195.85,598.15 196.483,597.06 196.705,595.855 C199.278,581.982 201.523,568.052 203.385,554.398 C227.245,548.56 233.665,539.412 234.345,538.34 C234.933,537.415 235.22,536.333 235.168,535.237 C232.5,479.48 228.378,428.725 222.898,384.073 C223.123,384.21 223.348,384.342 223.573,384.473 C225.568,385.825 227.773,386.8 230.028,387.34 C231.805,387.812 233.588,388.052 235.325,388.052 C259.978,388.052 268.178,342.94 272.12,321.262 C272.62,318.508 273.053,316.13 273.33,315.027 C274.81,309.193 273.15,303.68 268.865,299.663 L273.212,283.405 C278.905,280.955 292.087,274.315 297.723,263.385 C301.663,256.39 313.57,232.902 301.32,224.332 z M159.64,620.427 C159.603,620.297 159.555,620.172 159.493,620.055 C158.938,618.963 157.67,615.417 158.75,613.073 C161.625,619.693 169.588,626.585 177.56,630.487 L178.548,631.177 C178.893,631.417 179.298,631.545 179.713,631.545 C179.76,631.545 179.808,631.532 179.855,631.53 C183.098,632.875 186.258,633.688 188.97,633.688 C192.085,633.688 194.56,632.742 196.33,630.88 C196.728,630.46 197.03,629.985 197.29,629.49 C197.183,631.05 196.46,632.645 195.103,634.325 C193.955,635.745 192.023,636.465 189.36,636.465 C178.438,636.465 160.843,624.72 159.64,620.427 z M117.903,636.465 C115.238,636.465 113.305,635.745 112.158,634.325 C110.8,632.643 110.078,631.047 109.973,629.487 C110.233,629.985 110.535,630.46 110.935,630.88 C112.703,632.742 115.178,633.688 118.293,633.688 C120.988,633.688 124.163,632.912 127.48,631.537 C127.503,631.537 127.528,631.545 127.553,631.545 C127.965,631.545 128.373,631.417 128.715,631.177 L129.53,630.607 C132.483,629.185 135.493,627.338 138.34,625.107 C143.295,621.225 146.813,616.982 148.505,613.062 C149.593,615.39 148.363,618.878 147.77,620.055 C147.71,620.172 147.663,620.297 147.625,620.427 C146.42,624.72 128.825,636.465 117.903,636.465 z M193.935,626.355 C193.985,627.095 193.813,627.63 193.383,628.083 C192.413,629.105 190.928,629.625 188.97,629.625 C187.145,629.625 185.095,629.18 182.963,628.432 C186.538,624.03 190.625,623.518 193.135,623.747 C193.593,624.695 193.885,625.58 193.935,626.355 z M191.31,619.635 C187.755,619.805 183.1,621.273 179.17,626.655 L169.15,619.64 C170.69,617.14 174.725,612.232 182.663,612.232 C183.478,612.232 184.32,612.285 185.183,612.39 L191.31,619.635 z M166.098,616.9 C163.405,613.867 161.663,610.775 161.663,608.23 L161.663,602.18 C164.94,603.11 168.24,603.597 171.54,603.597 C174.818,603.597 177.79,603.133 180.415,602.448 C180.258,604.235 180.095,606.085 179.918,608.047 C179.908,608.15 179.958,608.242 179.965,608.345 C172.38,609.26 168.108,613.893 166.098,616.9 z M135.723,603.597 C139.023,603.597 142.323,603.11 145.6,602.177 L145.6,608.23 C145.6,610.62 143.948,613.735 141.168,616.902 C139.158,613.893 134.883,609.263 127.298,608.345 C127.305,608.242 127.355,608.15 127.345,608.047 C127.17,606.085 127.005,604.232 126.848,602.448 C129.473,603.133 132.445,603.597 135.723,603.597 z M113.328,626.357 C113.378,625.583 113.673,624.695 114.128,623.747 C116.643,623.515 120.72,624.025 124.295,628.425 C122.093,629.2 120.04,629.625 118.293,629.625 C116.335,629.625 114.85,629.105 113.88,628.083 C113.448,627.63 113.278,627.095 113.328,626.357 z M124.603,612.232 C132.543,612.232 136.575,617.143 138.113,619.64 L128.093,626.655 C124.165,621.273 119.51,619.805 115.953,619.635 L122.08,612.39 C122.943,612.285 123.788,612.232 124.603,612.232 z M151.6,556.062 L151.6,595.42 C146.358,598.14 141.025,599.535 135.723,599.535 C126.305,599.535 119.543,595.143 117.64,593.753 C114.955,579.213 112.8,565.505 111.055,552.595 C121.418,554.592 134.69,555.975 151.6,556.062 z M171.54,599.535 C166.238,599.535 160.903,598.14 155.663,595.42 L155.663,556.062 C172.57,555.977 185.843,554.597 196.205,552.6 C194.463,565.508 192.308,579.215 189.623,593.758 C187.733,595.15 181.018,599.535 171.54,599.535 z M154.013,552.015 L153.275,552.015 C97.103,552.015 81.85,537.545 79.49,534.838 C86.81,382.805 103.263,310.575 105.05,303.105 C113.593,296.212 121.445,291.83 127.28,289.133 C129.305,292.182 135.41,297.495 153.483,297.495 C171.788,297.495 177.823,292.045 179.773,289.015 C185.62,291.698 193.563,296.105 202.238,303.105 C204.023,310.575 220.478,382.8 227.795,534.835 C225.395,537.585 210.108,552.015 154.013,552.015 z M10.178,230.352 C11.293,229.572 13.478,229.595 16.025,230.415 C22.543,232.51 31.6,239.745 39.015,253.432 C34.863,251.382 30.79,250.622 28.645,250.345 C25.64,238.312 22.723,233.145 18.975,233.128 C18.97,233.128 18.963,233.128 18.958,233.128 C15.518,233.128 13.023,237.238 10.625,246.852 C10.56,247.113 10.52,247.365 10.465,247.622 C7.923,240.55 6.455,232.955 10.178,230.352 z M14.565,247.835 C17.043,237.905 18.93,237.21 18.918,237.185 C19.023,237.215 21.525,238.057 25.04,252.7 C25.253,253.585 26.03,254.223 26.94,254.255 C27.493,254.275 36.235,254.69 42.278,260.448 C42.42,260.658 42.603,260.842 42.82,260.987 C45.693,263.965 47.838,268.258 47.983,274.445 C48.01,275.565 48.97,276.505 50.06,276.427 C51.18,276.402 52.07,275.473 52.043,274.35 C51.88,267.35 49.525,262.375 46.323,258.837 C49.97,249.738 51.963,247.83 52.58,247.435 C54.32,249.372 55.428,261.46 54.97,273.943 C54.963,274.142 54.985,274.345 55.038,274.54 L60.515,295.047 L45.945,298.745 C45.898,298.76 45.843,298.785 45.795,298.802 L40.483,278.94 C40.31,278.295 39.83,277.775 39.2,277.55 C38.908,277.448 9.825,266.857 14.565,247.835 z M47.13,302.625 L63.133,298.562 C63.195,298.552 63.72,298.485 64.51,298.485 C67.955,298.485 72.343,299.61 73.7,304.967 C74.04,306.318 74.755,308.505 75.745,311.535 C80.46,325.96 91.503,359.745 83.455,374.142 C81.65,377.372 79.02,379.362 75.368,380.24 C74.208,380.55 73.063,380.707 71.963,380.707 L71.96,380.707 C53.443,380.702 45.415,336.56 42.393,319.943 C41.825,316.825 41.415,314.57 41.075,313.225 C39.16,305.652 46.988,302.688 47.13,302.625 z M153.96,194.462 C119.703,194.462 92.458,188.8 74.413,181.332 L74.41,164.02 C79.173,158.607 85.265,153.36 92.973,148.815 C90.43,152.238 89.428,155.03 89.348,155.257 C88.978,156.312 89.535,157.467 90.59,157.84 C90.813,157.917 91.04,157.955 91.263,157.955 C92.1,157.955 92.885,157.435 93.18,156.602 C93.215,156.507 96.678,147.067 107.45,142.3 C117.195,137.99 125.673,142.872 126.61,143.753 C127.403,144.545 128.688,144.542 129.483,143.75 C130.273,142.957 130.273,141.67 129.48,140.878 C128.863,140.262 126.465,138.67 122.935,137.575 C131.985,135.677 142.25,134.575 153.953,134.575 C165.658,134.575 175.925,135.677 184.98,137.575 C181.445,138.673 179.05,140.262 178.435,140.88 C177.65,141.662 177.66,142.912 178.433,143.71 C179.205,144.507 180.495,144.515 181.303,143.755 C182.24,142.867 190.713,137.98 200.465,142.3 C211.218,147.055 214.683,156.462 214.733,156.6 C215.025,157.435 215.81,157.957 216.648,157.957 C216.87,157.957 217.095,157.923 217.315,157.845 C218.375,157.475 218.935,156.317 218.565,155.257 C218.488,155.033 217.485,152.242 214.95,148.822 C222.653,153.367 228.745,158.613 233.503,164.025 L233.505,181.332 C215.458,188.802 188.215,194.462 153.96,194.462 z M65.308,176.995 C65.77,176.158 66.265,175.312 66.78,174.462 C67.923,174.132 69.118,173.938 70.35,173.87 L70.35,179.54 C68.563,178.707 66.875,177.86 65.308,176.995 z M237.565,173.87 C238.795,173.935 239.988,174.132 241.13,174.457 C241.643,175.31 242.14,176.16 242.605,177 C241.038,177.863 239.35,178.707 237.565,179.54 L237.565,173.87 z M260.345,155.225 C259.085,156.385 258.283,158.03 258.283,159.872 C258.283,164.64 253.928,170.03 245.803,175.113 C234.49,154.902 209.358,130.512 153.953,130.512 C98.553,130.512 73.423,154.9 62.108,175.11 C53.988,170.027 49.635,164.64 49.635,159.872 C49.635,158.025 48.828,156.378 47.563,155.217 C38.495,88.36 53.46,46.262 54.765,42.777 C79.188,9.835 139.173,8.162 150.973,8.162 C152.823,8.162 153.858,8.197 154.025,8.2 C154.048,8.197 155.08,8.162 156.933,8.162 C168.735,8.162 228.723,9.835 253.148,42.777 C254.453,46.262 269.418,88.362 260.345,155.225 z M43.305,157.602 C44.558,157.602 45.573,158.62 45.573,159.872 C45.573,178.537 89.125,198.525 153.96,198.525 C218.793,198.525 262.345,178.537 262.345,159.872 C262.345,158.62 263.363,157.602 264.615,157.602 C265.865,157.602 266.883,158.62 266.883,159.872 C266.883,183.688 216.225,203.065 153.96,203.065 C91.693,203.065 41.035,183.688 41.035,159.872 C41.035,158.62 42.053,157.602 43.305,157.602 z M154.025,247.477 C104.248,244.018 69.515,218.622 65.215,215.337 C65.238,210.842 65.338,206.48 65.463,202.622 C73.658,207.342 107.27,225.113 154.033,228.355 C199.483,225.195 232.553,208.235 241.785,203.005 C241.913,206.917 242.008,211.322 242.023,215.85 C235.548,220.66 201.683,244.158 154.025,247.477 z M52.785,184.29 C54.035,185.16 55.34,186.015 56.72,186.845 C55.928,189.018 55.298,191.03 54.8,192.825 C54.083,189.945 53.415,187.102 52.785,184.29 z M253.11,192.825 C252.613,191.033 251.985,189.02 251.193,186.85 C252.57,186.02 253.875,185.165 255.123,184.295 C254.493,187.107 253.825,189.947 253.11,192.825 z M154.025,226.232 C105.535,222.865 71.328,203.65 65.55,200.21 C65.683,196.673 65.828,193.715 65.938,191.652 C87.045,201.257 118.128,207.128 153.96,207.128 C189.41,207.128 220.225,201.387 241.318,191.962 C241.43,194.087 241.573,197.067 241.703,200.602 C234.315,204.908 200.82,222.973 154.025,226.232 z M245.675,197.917 C245.675,197.905 245.683,197.897 245.685,197.885 C245.993,195.945 245.87,194.037 245.405,192.247 C245.36,191.41 245.318,190.675 245.283,190.082 C246.145,189.652 246.983,189.215 247.805,188.772 C250.003,195.23 250.655,200.075 250.808,201.548 C249.73,204.485 248.183,207.395 246.035,209.927 C245.955,205.495 245.818,201.363 245.675,197.917 z M60.108,188.77 C60.715,189.098 61.345,189.42 61.975,189.74 C61.79,192.835 61.39,200.312 61.218,209.105 C59.408,206.768 58.068,204.162 57.105,201.533 C57.26,200.037 57.918,195.2 60.108,188.77 z M65.215,217.985 C73.168,223.772 106.943,246.335 154.033,249.6 C199.788,246.417 232.995,224.927 242.023,218.477 C242.005,222.932 241.895,227.423 241.653,231.6 C234.518,237.923 200.945,265.452 154.025,268.723 C105.145,265.325 70.793,235.727 65.555,230.957 C65.325,226.807 65.228,222.38 65.215,217.985 z M154.033,270.842 C198.803,267.732 231.558,242.962 241.448,234.585 C241.353,235.783 241.25,236.957 241.125,238.072 C239.26,255.01 205.068,278.637 153.62,278.637 C102.17,278.637 67.975,255.01 66.113,238.072 C65.97,236.768 65.853,235.38 65.748,233.965 C74.663,241.655 107.965,267.65 154.033,270.842 z M217.568,367.762 C217.513,367.68 217.463,367.59 217.41,367.503 C212.663,332.473 208.403,311.952 206.75,304.605 C209.948,305.832 216.045,309.515 224.423,320.503 C220.058,334.79 215.24,354.035 217.568,367.762 z M153.483,295.413 C136.818,295.413 131.11,290.797 129.225,288.258 C132.108,287.01 134.365,286.22 135.763,285.777 C135.95,286.045 136.178,286.32 136.453,286.598 C139.185,289.367 144.968,290.772 153.643,290.772 C162.318,290.772 168.1,289.367 170.835,286.598 C171.11,286.318 171.338,286.043 171.525,285.775 C172.89,286.205 175.073,286.965 177.863,288.165 C176.115,290.675 170.568,295.413 153.483,295.413 z M143.885,282.41 C147.073,282.6 150.318,282.7 153.62,282.7 C156.775,282.7 159.88,282.61 162.928,282.44 L163.17,285.552 C163.178,285.652 163.22,285.74 163.24,285.837 C161.07,286.337 158.008,286.71 153.643,286.71 C148.973,286.71 145.798,286.288 143.613,285.742 C143.615,285.707 143.635,285.677 143.638,285.642 L143.885,282.41 z M100.538,304.598 C98.888,311.94 94.628,332.462 89.875,367.51 C89.823,367.595 89.773,367.685 89.718,367.77 C92.048,354.047 87.235,334.807 82.87,320.517 C91.265,309.503 97.358,305.82 100.538,304.598 z M235.325,380.707 C234.225,380.707 233.078,380.55 231.87,380.228 C228.265,379.362 225.635,377.372 223.83,374.145 C215.785,359.747 226.825,325.96 231.54,311.533 C232.53,308.505 233.245,306.318 233.585,304.97 C234.945,299.61 239.333,298.485 242.775,298.485 C243.525,298.485 244.033,298.54 243.968,298.527 L259.973,302.568 C260.307,302.688 268.145,305.592 266.21,313.225 C265.87,314.57 265.46,316.825 264.893,319.948 C261.87,336.565 253.845,380.707 235.325,380.707 z M266.803,278.94 L261.488,298.818 C261.378,298.775 261.263,298.725 261.155,298.688 L246.77,295.052 L252.25,274.54 C252.303,274.345 252.325,274.142 252.318,273.943 C251.858,261.462 252.965,249.378 254.705,247.438 C255.323,247.83 257.318,249.738 260.962,258.84 C257.763,262.375 255.408,267.35 255.245,274.35 C255.218,275.473 256.108,276.402 257.228,276.427 C258.383,276.505 259.28,275.565 259.305,274.445 C259.453,268.202 261.65,263.887 264.578,260.905 C264.708,260.805 264.823,260.69 264.923,260.565 C270.967,254.727 279.795,254.277 280.353,254.255 C281.26,254.217 282.038,253.582 282.247,252.7 C285.76,238.057 288.263,237.215 288.277,237.182 C288.358,237.21 290.245,237.905 292.72,247.835 C297.462,266.857 268.38,277.448 268.085,277.55 C267.455,277.775 266.975,278.295 266.803,278.94 z M296.818,247.622 C296.765,247.365 296.725,247.113 296.66,246.852 C294.265,237.235 291.773,233.128 288.33,233.128 C288.323,233.128 288.318,233.128 288.31,233.128 C284.562,233.145 281.648,238.315 278.643,250.345 C276.497,250.622 272.425,251.382 268.273,253.432 C275.688,239.745 284.745,232.51 291.26,230.415 C293.81,229.595 295.995,229.572 297.11,230.352 C300.83,232.955 299.363,240.548 296.818,247.622 z M152.948,606.83 L152.948,602.958 C153.175,602.85 153.403,602.745 153.63,602.635 C153.858,602.745 154.088,602.852 154.318,602.958 L154.318,606.828 C154.073,607.073 153.845,607.323 153.63,607.583 C153.418,607.325 153.188,607.073 152.948,606.83" fill="#000000"/>
    <path d="M291.26,230.415 C284.745,232.51 275.688,239.745 268.272,253.432 C272.425,251.382 276.497,250.622 278.642,250.345 C281.647,238.315 284.562,233.145 288.31,233.128 C288.318,233.128 288.322,233.128 288.33,233.128 C291.772,233.128 294.265,237.235 296.66,246.852 C296.725,247.113 296.765,247.365 296.818,247.622 C299.362,240.548 300.83,232.955 297.11,230.352 C295.995,229.572 293.81,229.595 291.26,230.415" fill="#FFFFFF"/>
    <path d="M292.72,247.835 C290.245,237.905 288.357,237.21 288.277,237.183 C288.262,237.215 285.76,238.058 282.247,252.7 C282.038,253.583 281.26,254.218 280.353,254.255 C279.795,254.278 270.967,254.728 264.922,260.565 C264.823,260.69 264.707,260.805 264.577,260.905 C261.65,263.888 259.452,268.203 259.305,274.445 C259.28,275.565 258.383,276.505 257.228,276.428 C256.107,276.403 255.217,275.473 255.245,274.35 C255.408,267.35 257.762,262.375 260.962,258.84 C257.318,249.738 255.322,247.83 254.705,247.438 C252.965,249.378 251.857,261.463 252.317,273.943 C252.325,274.143 252.302,274.345 252.25,274.54 L246.77,295.053 L261.155,298.688 C261.262,298.725 261.378,298.775 261.487,298.818 L266.802,278.94 C266.975,278.295 267.455,277.775 268.085,277.55 C268.38,277.448 297.462,266.858 292.72,247.835" fill="#FFFFFF"/>
    <path d="M206.75,304.605 C208.402,311.953 212.662,332.473 217.41,367.503 C217.462,367.59 217.512,367.68 217.567,367.763 C215.24,354.035 220.057,334.79 224.422,320.503 C216.045,309.515 209.947,305.833 206.75,304.605" fill="#2E8EC1"/>
    <path d="M266.21,313.225 C268.145,305.592 260.307,302.688 259.972,302.568 L243.967,298.527 C244.032,298.54 243.525,298.485 242.775,298.485 C239.332,298.485 234.945,299.61 233.585,304.97 C233.245,306.318 232.53,308.505 231.54,311.533 C226.825,325.96 215.785,359.747 223.83,374.145 C225.635,377.372 228.265,379.362 231.87,380.227 C233.077,380.55 234.225,380.707 235.325,380.707 C253.845,380.707 261.87,336.565 264.892,319.947 C265.46,316.825 265.87,314.57 266.21,313.225" fill="#2E8EC1"/>
    <path d="M89.717,367.77 C89.772,367.685 89.823,367.595 89.875,367.51 C94.628,332.462 98.887,311.94 100.537,304.598 C97.357,305.82 91.265,309.503 82.87,320.518 C87.235,334.807 92.048,354.048 89.717,367.77" fill="#2E8EC1"/>
    <path d="M195.103,634.325 C196.46,632.645 197.183,631.05 197.29,629.49 C197.03,629.985 196.728,630.46 196.33,630.88 C194.56,632.742 192.085,633.688 188.97,633.688 C186.258,633.688 183.098,632.875 179.855,631.53 C179.808,631.532 179.76,631.545 179.713,631.545 C179.298,631.545 178.893,631.417 178.548,631.177 L177.56,630.487 C169.588,626.585 161.625,619.693 158.75,613.073 C157.67,615.417 158.938,618.962 159.493,620.055 C159.555,620.172 159.603,620.297 159.64,620.427 C160.843,624.72 178.438,636.465 189.36,636.465 C192.023,636.465 193.955,635.745 195.103,634.325" fill="#B39066"/>
    <path d="M180.415,602.448 C177.79,603.133 174.818,603.597 171.54,603.597 C168.24,603.597 164.94,603.11 161.663,602.18 L161.663,608.23 C161.663,610.775 163.405,613.867 166.098,616.9 C168.108,613.893 172.38,609.26 179.965,608.345 C179.958,608.242 179.908,608.15 179.918,608.047 C180.095,606.085 180.258,604.235 180.415,602.448" fill="#F6CBAD"/>
    <path d="M182.962,628.432 C185.095,629.18 187.145,629.625 188.97,629.625 C190.927,629.625 192.412,629.105 193.382,628.083 C193.812,627.63 193.985,627.095 193.935,626.355 C193.885,625.58 193.592,624.695 193.135,623.747 C190.625,623.518 186.537,624.03 182.962,628.432" fill="#F6CBAD"/>
    <path d="M182.662,612.232 C174.725,612.232 170.69,617.14 169.15,619.64 L179.17,626.655 C183.1,621.272 187.755,619.805 191.31,619.635 L185.182,612.39 C184.32,612.285 183.477,612.232 182.662,612.232" fill="#2B659A"/>
    <path d="M147.77,620.055 C148.363,618.878 149.592,615.39 148.505,613.062 C146.812,616.982 143.295,621.225 138.34,625.107 C135.493,627.338 132.482,629.185 129.53,630.607 L128.715,631.177 C128.372,631.417 127.965,631.545 127.553,631.545 C127.528,631.545 127.503,631.537 127.48,631.537 C124.163,632.912 120.988,633.688 118.293,633.688 C115.178,633.688 112.702,632.742 110.935,630.88 C110.535,630.46 110.233,629.985 109.973,629.487 C110.077,631.047 110.8,632.643 112.158,634.325 C113.305,635.745 115.238,636.465 117.903,636.465 C128.825,636.465 146.42,624.72 147.625,620.427 C147.663,620.297 147.71,620.172 147.77,620.055" fill="#B39066"/>
    <path d="M127.297,608.345 C134.882,609.263 139.158,613.893 141.167,616.903 C143.947,613.735 145.6,610.62 145.6,608.23 L145.6,602.177 C142.322,603.11 139.022,603.598 135.722,603.598 C132.445,603.598 129.472,603.133 126.847,602.448 C127.005,604.232 127.17,606.085 127.345,608.047 C127.355,608.15 127.305,608.242 127.297,608.345" fill="#F6CBAD"/>
    <path d="M118.292,629.625 C120.04,629.625 122.092,629.2 124.295,628.425 C120.72,624.025 116.642,623.515 114.127,623.747 C113.672,624.695 113.377,625.582 113.327,626.357 C113.277,627.095 113.447,627.63 113.88,628.082 C114.85,629.105 116.335,629.625 118.292,629.625" fill="#F6CBAD"/>
    <path d="M115.952,619.635 C119.51,619.805 124.165,621.272 128.092,626.655 L138.113,619.64 C136.575,617.142 132.542,612.232 124.603,612.232 C123.787,612.232 122.942,612.285 122.08,612.39 L115.952,619.635" fill="#2B659A"/>
    <path d="M135.723,599.535 C141.025,599.535 146.357,598.14 151.6,595.42 L151.6,556.062 C134.69,555.975 121.417,554.593 111.055,552.595 C112.8,565.505 114.955,579.213 117.64,593.753 C119.542,595.143 126.305,599.535 135.723,599.535" fill="#2E8EC1"/>
    <path d="M155.662,556.062 L155.662,595.42 C160.902,598.14 166.237,599.535 171.54,599.535 C181.017,599.535 187.732,595.15 189.622,593.758 C192.307,579.215 194.462,565.508 196.205,552.6 C185.842,554.597 172.57,555.977 155.662,556.062" fill="#2E8EC1"/>
    <path d="M153.643,286.71 C158.008,286.71 161.07,286.337 163.24,285.838 C163.22,285.74 163.178,285.652 163.17,285.553 L162.928,282.44 C159.88,282.61 156.775,282.7 153.62,282.7 C150.318,282.7 147.072,282.6 143.885,282.41 L143.637,285.643 C143.635,285.678 143.615,285.708 143.613,285.743 C145.798,286.288 148.973,286.71 153.643,286.71" fill="#F6CBAD"/>
    <path d="M242.605,177 C242.14,176.16 241.643,175.31 241.13,174.458 C239.988,174.132 238.795,173.935 237.565,173.87 L237.565,179.54 C239.35,178.708 241.038,177.863 242.605,177" fill="#F6CBAD"/>
    <path d="M247.805,188.773 C246.982,189.215 246.145,189.653 245.283,190.083 C245.317,190.675 245.36,191.41 245.405,192.248 C245.87,194.038 245.992,195.945 245.685,197.885 C245.682,197.898 245.675,197.905 245.675,197.918 C245.817,201.363 245.955,205.495 246.035,209.928 C248.182,207.395 249.73,204.485 250.807,201.548 C250.655,200.075 250.002,195.23 247.805,188.773" fill="#F6CBAD"/>
    <path d="M70.35,173.87 C69.118,173.938 67.923,174.132 66.78,174.462 C66.265,175.312 65.77,176.157 65.307,176.995 C66.875,177.86 68.562,178.707 70.35,179.54 L70.35,173.87" fill="#F6CBAD"/>
    <path d="M61.975,189.74 C61.345,189.42 60.715,189.098 60.107,188.77 C57.917,195.2 57.26,200.038 57.105,201.533 C58.067,204.163 59.407,206.768 61.217,209.105 C61.39,200.312 61.79,192.835 61.975,189.74" fill="#F6CBAD"/>
    <path d="M233.505,181.333 L233.503,164.025 C228.745,158.613 222.652,153.367 214.95,148.822 C217.485,152.242 218.487,155.033 218.565,155.257 C218.935,156.318 218.375,157.475 217.315,157.845 C217.095,157.923 216.87,157.958 216.647,157.958 C215.81,157.958 215.025,157.435 214.732,156.6 C214.682,156.462 211.217,147.055 200.465,142.3 C190.712,137.98 182.24,142.867 181.302,143.755 C180.495,144.515 179.205,144.507 178.432,143.71 C177.66,142.912 177.65,141.662 178.435,140.88 C179.05,140.262 181.445,138.673 184.98,137.575 C175.925,135.678 165.658,134.575 153.952,134.575 C142.25,134.575 131.985,135.678 122.935,137.575 C126.465,138.67 128.862,140.262 129.48,140.878 C130.272,141.67 130.272,142.958 129.482,143.75 C128.688,144.542 127.402,144.545 126.61,143.753 C125.672,142.872 117.195,137.99 107.45,142.3 C96.677,147.068 93.215,156.507 93.18,156.602 C92.885,157.435 92.1,157.955 91.262,157.955 C91.04,157.955 90.812,157.917 90.59,157.84 C89.535,157.467 88.977,156.312 89.347,155.257 C89.427,155.03 90.43,152.238 92.972,148.815 C85.265,153.36 79.172,158.607 74.41,164.02 L74.412,181.333 C92.457,188.8 119.702,194.462 153.96,194.462 C188.215,194.462 215.457,188.803 233.505,181.333 z M122.312,190.66 C117.96,190.66 114.432,186.757 114.432,181.943 C114.432,177.125 117.96,173.223 122.312,173.223 C126.667,173.223 130.192,177.125 130.192,181.943 C130.192,186.757 126.667,190.66 122.312,190.66 z M185.605,190.66 C181.253,190.66 177.725,186.757 177.725,181.943 C177.725,177.125 181.253,173.223 185.605,173.223 C189.952,173.223 193.487,177.125 193.487,181.943 C193.487,186.757 189.952,190.66 185.605,190.66" fill="#F6CBAD"/>
    <path d="M185.605,173.223 C181.253,173.223 177.725,177.125 177.725,181.943 C177.725,186.758 181.253,190.66 185.605,190.66 C189.952,190.66 193.488,186.758 193.488,181.943 C193.488,177.125 189.952,173.223 185.605,173.223" fill="#000000"/>
    <path d="M122.313,173.223 C117.96,173.223 114.433,177.125 114.433,181.943 C114.433,186.758 117.96,190.66 122.313,190.66 C126.668,190.66 130.193,186.758 130.193,181.943 C130.193,177.125 126.668,173.223 122.313,173.223" fill="#000000"/>
    <path d="M156.932,8.162 C155.08,8.162 154.048,8.197 154.025,8.2 C153.857,8.197 152.822,8.162 150.972,8.162 C139.173,8.162 79.187,9.835 54.765,42.777 C53.46,46.262 38.495,88.36 47.562,155.217 C48.827,156.378 49.635,158.025 49.635,159.872 C49.635,164.64 53.987,170.027 62.107,175.11 C73.422,154.9 98.552,130.512 153.952,130.512 C209.357,130.512 234.49,154.902 245.802,175.113 C253.927,170.03 258.283,164.64 258.283,159.872 C258.283,158.03 259.085,156.385 260.345,155.225 C269.417,88.362 254.452,46.262 253.147,42.777 C228.722,9.835 168.735,8.162 156.932,8.162" fill="#2E8EC1"/>
    <path d="M251.192,186.85 C251.985,189.02 252.613,191.033 253.11,192.825 C253.825,189.947 254.492,187.107 255.122,184.295 C253.875,185.165 252.57,186.02 251.192,186.85" fill="#2E8EC1"/>
    <path d="M56.72,186.845 C55.34,186.015 54.035,185.16 52.785,184.29 C53.415,187.103 54.083,189.945 54.8,192.825 C55.298,191.03 55.928,189.018 56.72,186.845" fill="#2E8EC1"/>
    <path d="M154.025,268.723 C200.945,265.453 234.518,237.923 241.652,231.6 C241.895,227.423 242.005,222.933 242.022,218.478 C232.995,224.928 199.788,246.418 154.033,249.6 C106.942,246.335 73.167,223.773 65.215,217.985 C65.228,222.38 65.325,226.808 65.555,230.958 C70.792,235.728 105.145,265.325 154.025,268.723" fill="#2E8EC1"/>
    <path d="M153.62,278.638 C205.067,278.638 239.26,255.01 241.125,238.073 C241.25,236.958 241.352,235.783 241.447,234.585 C231.557,242.963 198.802,267.733 154.033,270.842 C107.965,267.65 74.662,241.655 65.747,233.965 C65.853,235.38 65.97,236.768 66.112,238.073 C67.975,255.01 102.17,278.638 153.62,278.638" fill="#2E8EC1"/>
    <path d="M242.022,215.85 C242.007,211.322 241.912,206.917 241.785,203.005 C232.552,208.235 199.482,225.195 154.033,228.355 C107.27,225.113 73.657,207.342 65.462,202.622 C65.337,206.48 65.237,210.842 65.215,215.337 C69.515,218.622 104.247,244.018 154.025,247.477 C201.682,244.158 235.548,220.66 242.022,215.85" fill="#2E8EC1"/>
    <path d="M241.702,200.602 C241.573,197.067 241.43,194.087 241.318,191.962 C220.225,201.387 189.41,207.127 153.96,207.127 C118.128,207.127 87.045,201.257 65.938,191.652 C65.828,193.715 65.683,196.672 65.55,200.21 C71.328,203.65 105.535,222.865 154.025,226.232 C200.82,222.972 234.315,204.907 241.702,200.602" fill="#2E8EC1"/>
    <path d="M153.96,203.065 C216.225,203.065 266.883,183.688 266.883,159.872 C266.883,158.62 265.865,157.602 264.615,157.602 C263.362,157.602 262.345,158.62 262.345,159.872 C262.345,178.538 218.792,198.525 153.96,198.525 C89.125,198.525 45.572,178.538 45.572,159.872 C45.572,158.62 44.557,157.602 43.305,157.602 C42.052,157.602 41.035,158.62 41.035,159.872 C41.035,183.688 91.692,203.065 153.96,203.065" fill="#2E8EC1"/>
    <path d="M202.238,303.105 C193.562,296.105 185.62,291.698 179.772,289.015 C177.822,292.045 171.787,297.495 153.482,297.495 C135.41,297.495 129.305,292.183 127.28,289.133 C121.445,291.83 113.592,296.213 105.05,303.105 C103.262,310.575 86.81,382.805 79.49,534.838 C81.85,537.545 97.102,552.015 153.275,552.015 L154.012,552.015 C210.107,552.015 225.395,537.585 227.795,534.835 C220.477,382.8 204.022,310.575 202.238,303.105 z M155.305,522.478 C155.115,522.845 154.745,523.055 154.36,523.055 C154.195,523.055 154.03,523.015 153.872,522.935 C94.252,492.2 107.515,378.258 107.657,377.11 C107.727,376.53 108.25,376.113 108.84,376.185 C109.422,376.255 109.837,376.788 109.765,377.37 C109.627,378.503 96.54,490.988 154.847,521.048 C155.367,521.315 155.572,521.958 155.305,522.478 z M162.037,490.665 C161.87,490.758 161.69,490.803 161.512,490.803 C161.143,490.803 160.783,490.61 160.587,490.265 C160.298,489.755 160.475,489.108 160.985,488.815 C203.372,464.7 197.025,398.713 196.957,398.048 C196.897,397.465 197.32,396.943 197.905,396.88 C198.477,396.818 199.012,397.245 199.072,397.828 C199.143,398.505 205.637,465.858 162.037,490.665" fill="#2E8EC1"/>
    <path d="M177.863,288.165 C175.073,286.965 172.89,286.205 171.525,285.775 C171.338,286.042 171.11,286.317 170.835,286.598 C168.1,289.367 162.318,290.772 153.643,290.772 C144.967,290.772 139.185,289.367 136.452,286.598 C136.178,286.32 135.95,286.045 135.763,285.777 C134.365,286.22 132.108,287.01 129.225,288.257 C131.11,290.797 136.818,295.412 153.483,295.412 C170.568,295.412 176.115,290.675 177.863,288.165" fill="#2E8EC1"/>
    <path d="M10.465,247.622 C10.52,247.365 10.56,247.113 10.625,246.852 C13.023,237.238 15.517,233.128 18.958,233.128 C18.962,233.128 18.97,233.128 18.975,233.128 C22.722,233.145 25.64,238.312 28.645,250.345 C30.79,250.622 34.862,251.382 39.015,253.432 C31.6,239.745 22.542,232.51 16.025,230.415 C13.477,229.595 11.293,229.572 10.178,230.352 C6.455,232.955 7.923,240.55 10.465,247.622" fill="#FFFFFF"/>
    <path d="M39.2,277.55 C39.83,277.775 40.31,278.295 40.482,278.94 L45.795,298.802 C45.842,298.785 45.897,298.76 45.945,298.745 L60.515,295.047 L55.037,274.54 C54.985,274.345 54.962,274.142 54.97,273.943 C55.427,261.46 54.32,249.372 52.58,247.435 C51.962,247.83 49.97,249.738 46.322,258.837 C49.525,262.375 51.88,267.35 52.042,274.35 C52.07,275.473 51.18,276.402 50.06,276.427 C48.97,276.505 48.01,275.565 47.982,274.445 C47.837,268.258 45.692,263.965 42.82,260.987 C42.602,260.842 42.42,260.658 42.278,260.448 C36.235,254.69 27.492,254.275 26.94,254.255 C26.03,254.223 25.252,253.585 25.04,252.7 C21.525,238.057 19.022,237.215 18.917,237.185 C18.93,237.21 17.042,237.905 14.565,247.835 C9.825,266.857 38.907,277.448 39.2,277.55" fill="#FFFFFF"/>
    <path d="M42.392,319.943 C45.415,336.56 53.442,380.702 71.96,380.707 L71.963,380.707 C73.062,380.707 74.207,380.55 75.368,380.24 C79.02,379.362 81.65,377.372 83.455,374.142 C91.502,359.745 80.46,325.96 75.745,311.535 C74.755,308.505 74.04,306.318 73.7,304.967 C72.342,299.61 67.955,298.485 64.51,298.485 C63.72,298.485 63.195,298.552 63.132,298.562 L47.13,302.625 C46.987,302.688 39.16,305.652 41.075,313.225 C41.415,314.57 41.825,316.825 42.392,319.943" fill="#2E8EC1"/>
    <path d="M154.848,521.047 C96.54,490.987 109.628,378.503 109.765,377.37 C109.838,376.788 109.423,376.255 108.84,376.185 C108.25,376.112 107.728,376.53 107.658,377.11 C107.515,378.258 94.253,492.2 153.872,522.935 C154.03,523.015 154.195,523.055 154.36,523.055 C154.745,523.055 155.115,522.845 155.305,522.477 C155.572,521.958 155.368,521.315 154.848,521.047" fill="#000000"/>
    <path d="M199.073,397.827 C199.012,397.245 198.478,396.818 197.905,396.88 C197.32,396.943 196.898,397.465 196.958,398.047 C197.025,398.712 203.372,464.7 160.985,488.815 C160.475,489.107 160.298,489.755 160.588,490.265 C160.783,490.61 161.143,490.802 161.512,490.802 C161.69,490.802 161.87,490.758 162.038,490.665 C205.637,465.857 199.143,398.505 199.073,397.827" fill="#000000"/>
  </g>
</svg>
